<?xml version="1.0" encoding="UTF-8"?>
<svg width="91px" height="103px" viewBox="0 0 91 103" version="1.1" xmlns="http://www.w3.org/2000/svg" xmlns:xlink="http://www.w3.org/1999/xlink">
    <!-- Generator: Sketch 46.1 (44463) - http://www.bohemiancoding.com/sketch -->
    <title>logo-detail</title>
    <desc>Created with Sketch.</desc>
    <defs>
        <path d="M0.794738664,1.38329049 C1.03195315,1.38329046 1.2615256,1.25276115 1.37795681,1.02655806 C1.42706692,0.930706305 1.45035406,0.828533957 1.45035404,0.728026998 L1.45035404,1.38329049 L0.794738664,1.38329049 Z M0.794738659,1.38329049 C0.695819465,1.3832905 0.595571383,1.36059256 0.501644518,1.31266917 C0.277758344,1.19844159 0.149669342,0.971892711 0.149669309,0.736183022 L0.149669309,1.38329049 L0.794738659,1.38329049 Z M0.149669309,0.736183002 C0.149669298,0.6354131 0.17308021,0.53296887 0.222425249,0.436911028 C0.338506613,0.210795691 0.567748922,0.0807081288 0.804927324,0.0807081045 L1.45035404,0.0807081045 L1.45035404,0.728026969 C1.45035404,0.728026979 1.45035404,0.728026988 1.45035404,0.728026998 L0.149669309,0.736183002 Z" id="path-1"></path>
        <radialGradient cx="-49.9767334%" cy="-49.9772025%" fx="-49.9767334%" fy="-49.9772025%" r="148.858471%" gradientTransform="translate(-0.499767,-0.499772),scale(1.000000,0.998543),translate(0.499767,0.499772)" id="radialGradient-3">
            <stop stop-color="#1A1919" offset="0%"></stop>
            <stop stop-color="#FFFFFE" offset="100%"></stop>
        </radialGradient>
        <radialGradient cx="-49.9785669%" cy="-49.9841076%" fx="-49.9785669%" fy="-49.9841076%" r="148.843054%" gradientTransform="translate(-0.499786,-0.499841),scale(0.942985,1.000000),translate(0.499786,0.499841)" id="radialGradient-4">
            <stop stop-color="#1A1919" offset="0%"></stop>
            <stop stop-color="#FFFFFE" offset="100%"></stop>
        </radialGradient>
    </defs>
    <g id="Page-1" stroke="none" stroke-width="1" fill="none" fill-rule="evenodd">
        <g id="logo-detail">
            <path d="M89.9333769,46.3366319 C89.8541037,46.2936402 89.7707039,46.2528899 89.6840463,46.214177 C89.5680685,45.6475432 89.2861598,45.0741855 88.8932687,44.6534379 C88.3461748,44.0678552 87.6049158,43.8229454 86.8892849,44.0036733 C86.4731547,43.5900571 85.9597248,43.3592063 85.4154544,43.3592063 C85.2503923,43.3592063 85.0851131,43.3806002 84.9241775,43.4229806 C84.5942706,43.5095751 84.2548074,43.6391613 83.9105661,43.8094978 C82.8202877,43.5501217 81.5601692,43.3761177 80.0778684,43.2795393 C79.1465708,43.1676795 78.1794374,43.1134815 77.1230402,43.1134815 C76.4703935,43.1134815 75.8815997,43.1332455 75.3620886,43.1509719 C74.6071468,43.1766446 74.0161812,43.1888697 73.7216757,43.1487306 C73.5828932,43.1293742 73.0184244,43.0077343 70.7805303,42.2941954 C69.6791754,41.9421122 68.4442505,41.5352198 67.355058,41.1760053 C67.0162464,41.0643493 66.6887285,40.9565646 66.3794543,40.8548924 C70.2699238,36.6466019 71.5413361,30.3749166 69.9571746,22.9783173 C69.9289403,22.8473049 69.9078732,22.7533753 69.9020092,22.7181262 C69.8872404,22.5846688 69.8711686,22.4501926 69.8535765,22.3153089 C71.8651618,21.9528343 75.6211926,20.9782893 76.8131145,19.7129904 C77.8692945,18.5921515 77.7974056,16.6487665 77.7172636,15.8653407 C77.5074611,13.8072433 76.5752948,11.9958895 75.2235233,11.0199182 C74.687506,10.6329934 74.0385514,10.4365767 73.2955549,10.4365767 C71.0239968,10.4365767 68.2327104,12.3571415 66.6615802,13.7430615 C60.5499399,4.68384727 48.0015307,2.49983131 45.4597921,2.14469185 L45.3863829,2.13450426 C45.3837766,2.13409676 45.3809532,2.13368925 45.3781298,2.13328175 C45.3362127,2.12778045 45.2104615,2.11046154 45.0165135,2.10027395 C43.9216742,2.02305201 42.559695,2.23923271 40.9779226,2.73638719 C40.2138589,2.96621927 39.4102673,3.25575063 38.5758351,3.601925 C38.4418308,2.60965355 38.1158332,1.47251454 37.3608914,0.745120474 C36.8563662,0.259376091 36.2121898,0.00163001471 35.4896088,0 C34.1721529,0 32.7009287,0.68603244 31.5543989,1.83539656 C31.1132922,2.27753805 30.0966402,3.43403349 30.1806915,4.62251796 C30.2478023,5.5801516 30.9245568,6.67409522 31.5711223,7.48543505 C31.2270982,7.74460738 30.9047928,8.0123373 30.6876058,8.24787443 C30.6823933,8.25337573 30.6708824,8.26560084 30.6656699,8.27150964 C30.5937811,8.35056535 30.5357922,8.422286 30.4867079,8.49339539 C30.4293706,8.57693365 30.3759426,8.66373193 30.3262068,8.75073396 C30.2984068,8.79983816 30.2725616,8.8491461 30.2378117,8.91699546 L30.2011071,8.99034613 C30.1678775,9.05921425 30.1366026,9.12848987 30.1055449,9.2032668 C30.0390857,9.36361949 29.9832686,9.52111966 29.9433062,9.66007842 C29.9324469,9.69634625 29.9218047,9.73261407 29.9118141,9.76827065 C29.5024167,9.5522937 29.1499224,9.41618747 28.7889577,9.41618747 C28.633669,9.41618747 28.4835929,9.44104519 28.3435073,9.49014939 C27.5759687,9.75828681 27.0112827,10.3151406 26.7530474,11.0584273 C26.4177108,12.0240073 26.6242556,13.3084588 27.2738617,14.4455979 C27.1876385,14.7017139 27.115098,14.9684251 27.055806,15.2465463 L27.0475529,15.2842404 C27.0208389,15.4138266 26.996514,15.545654 26.9758812,15.6825753 C26.9708859,15.7141568 26.9678453,15.7459421 26.966325,15.7781349 C26.8881377,17.3496728 27.8526648,18.6966762 29.6926725,19.6047982 C30.5985592,22.6580195 30.804018,24.7642022 26.9183267,27.4808255 C26.5790807,27.5855539 26.1814114,27.7334778 25.9005887,27.9168544 C25.855631,27.9445647 25.8128452,27.9751274 25.7726656,28.0089502 C25.6727596,28.0910622 25.5913145,28.1886594 25.5305022,28.2958328 C24.9380162,29.2218849 24.806401,29.473926 24.6120186,29.897526 C24.5963812,29.9315526 24.5829156,29.9659867 24.5716219,30.0008282 L24.4552097,30.2459417 C24.4306676,30.2987134 24.4061254,30.3514851 24.3818005,30.4054794 L24.3116491,30.5662396 C24.2847179,30.6279764 24.2577868,30.6903244 24.230204,30.7561363 L24.1663511,30.9146552 C24.1413746,30.9767995 24.1166153,31.0393513 24.0931591,31.1002731 L24.0334327,31.2618483 C24.0108452,31.3233814 23.988475,31.3847107 23.9674078,31.4454288 L23.9148486,31.6015027 C23.8942158,31.6630357 23.8742346,31.7247725 23.8555566,31.7852868 C23.8394847,31.8370398 23.8238473,31.8881815 23.8075583,31.9429907 C23.7899661,32.0033013 23.772374,32.0634081 23.7556506,32.1229036 C23.7410991,32.1758791 23.7271991,32.2284471 23.715471,32.274495 C23.6993992,32.3358243 23.6837617,32.3971536 23.6694274,32.4564454 C23.6570477,32.5067721 23.645754,32.5570988 23.6338087,32.6096668 C23.6203431,32.6699773 23.6073119,32.7300841 23.5944979,32.7918209 L23.5660464,32.936281 C23.5545355,32.997814 23.543459,33.0593471 23.5323824,33.1257702 L23.5106637,33.2606539 C23.5013247,33.3230019 23.4928544,33.3849425 23.4846013,33.4466793 L23.4674435,33.5844156 C23.4604935,33.6461524 23.4544123,33.7074817 23.4483311,33.770441 L23.4368202,33.9041022 C23.4318249,33.9676728 23.4281327,34.0306321 23.4248749,34.0895164 C23.4222686,34.133323 23.4200968,34.1773334 23.4187937,34.2152312 C23.4159702,34.2812468 23.4146671,34.3466512 23.4137984,34.408388 C23.4129296,34.4485271 23.4124952,34.4886662 23.4124952,34.5283978 C23.4124952,34.5970622 23.4135812,34.6653191 23.415753,34.7429485 L23.4181421,34.8348406 C23.4207483,34.9055425 23.4250921,34.9756331 23.4300874,35.0502063 L23.4357342,35.1390421 C23.4415983,35.2142265 23.4491998,35.2887997 23.4585389,35.377228 L23.4630998,35.4169596 C22.648866,35.4744176 21.6465483,35.5608084 20.6079604,35.6506629 C18.8050917,35.8063294 16.7611455,35.9831859 15.8641635,35.9831859 L15.8044371,35.9829822 C15.7038795,35.9829822 15.6015845,35.9884835 15.4988551,35.9994861 C14.546056,35.5459345 13.5428696,35.4689163 12.7601279,35.8075519 C12.6947546,35.8362809 12.635897,35.8680662 12.5837721,35.9006665 C11.664637,36.0528691 11.0460886,36.6166504 11.0022169,37.3852023 C11.0017825,37.3951862 11.0013481,37.4055775 11.0009137,37.4159689 C10.6125835,37.7431943 10.3076531,38.182687 10.1962362,38.6183085 C10.0819958,39.06534 10.1621378,39.5032027 10.4168981,39.8538596 C10.2794188,40.3817806 10.4021294,40.9005328 10.7917627,41.2860313 C10.9307624,41.4227488 11.0940869,41.5511124 11.2739177,41.6658247 C11.4530969,41.9150132 11.7426071,42.079441 12.0664328,42.1093925 C12.0888031,42.11143 12.156131,42.11632 12.2625526,42.11632 C12.3683227,42.11632 12.5850752,42.112245 12.8728479,42.0841273 C12.9154165,42.1169313 12.9588539,42.1487166 13.0035944,42.1794831 C13.9390185,42.8202826 15.3327071,43.6601477 16.5622023,44.4009894 C16.6651489,44.46293 16.7665752,44.5240555 16.866264,44.5843661 C15.7979215,46.3227767 15.0827249,48.1767147 14.7360946,50.1103197 C14.6718072,50.227477 14.5362826,50.4536415 14.4142235,50.6575971 L14.3203988,50.8146898 C14.3182269,50.8183573 14.3138832,50.8256924 14.3095394,50.8330274 C7.67751934,61.9340389 8.60078098,69.9125534 10.7365973,74.8150264 C9.91085255,75.4900562 8.09473544,76.8221857 6.11551094,78.1634841 C5.78929618,77.8945316 5.36860509,77.7478303 4.91598753,77.7478303 C4.09675843,77.7478303 3.26514968,78.2223683 2.72196516,78.8091736 C2.6466013,78.8046911 2.57232337,78.8022461 2.49956575,78.8022461 C2.49609076,78.8022461 2.47741268,78.8022461 2.4737205,78.8022461 C1.50702148,78.8112112 0.767282794,79.51171 0.545317751,80.5844634 C0.484071037,80.6533315 0.422389949,80.7354435 0.369179151,80.8324294 C-0.182692838,81.8338697 -0.10971803,83.4909834 0.547055247,84.9771493 C1.24292217,87.385496 3.31379955,88.8775707 5.97129882,88.8775707 C6.21910911,88.8775707 6.47495531,88.8649381 6.73188745,88.8396729 C8.71111194,88.6457012 10.9450967,87.9879902 13.1054551,87.351877 C15.5648799,86.6277429 18.1077045,85.8789549 20.0877977,85.8789549 C20.5960151,85.8789549 21.0538452,85.9292816 21.4478223,86.0278975 C21.528833,86.0482727 21.6026765,86.0639616 21.6756514,86.0774092 L21.6908544,86.080058 C21.7388528,86.103897 21.7922807,86.1289584 21.8446228,86.1525937 C21.8520071,86.1562612 21.8778524,86.1680788 21.8852367,86.1715426 C23.6240353,86.9517084 29.6346836,88.5629779 37.1143843,88.5629779 C38.8505766,88.5629779 40.5743893,88.4753646 42.240213,88.3021756 C46.544858,88.8920371 56.2893839,93.0991051 58.0257934,94.4603711 C58.4443127,94.7884116 58.5374859,95.5922126 58.6454278,96.5231547 C58.8702162,98.4600197 59.1777529,101.112257 62.8651526,102.463947 C63.0117538,102.517941 63.1635675,102.567657 63.3440498,102.620836 L63.4454761,102.650584 C63.6003304,102.693983 63.7517097,102.73127 63.8952702,102.761629 L63.9964793,102.781596 C64.1291806,102.807473 64.2601443,102.829478 64.3987095,102.848223 C64.4262923,102.852298 64.4540922,102.856373 64.4732047,102.858411 C64.603734,102.8741 64.7401274,102.885713 64.896502,102.894067 L65.0307235,102.899569 C65.0954452,102.901402 65.1599497,102.902421 65.2238027,102.902421 C65.2906963,102.902421 65.3567211,102.901199 65.4225287,102.898754 C65.4587989,102.897531 65.4944176,102.895086 65.5300363,102.892437 L65.5578362,102.890603 C65.6527469,102.884491 65.7461372,102.876341 65.8421339,102.865338 L65.8712369,102.862282 C65.9125024,102.857596 65.9539851,102.852909 65.9959022,102.847001 C66.1097082,102.8307 66.2213423,102.810325 66.3321076,102.787301 C66.3931371,102.774261 66.4537323,102.759795 66.5158477,102.744717 C66.584696,102.727602 66.6522411,102.708653 66.720655,102.688889 C66.8196922,102.66016 66.9165576,102.628579 67.0105996,102.594756 C67.0644619,102.575807 67.1174555,102.556247 67.1654538,102.537094 C67.2343021,102.509995 67.3024988,102.482285 67.3752564,102.449888 L67.4145672,102.431347 C67.5055686,102.389578 67.5967871,102.344549 67.6871368,102.296463 C69.8205641,101.776896 71.606275,100.378955 71.875804,98.9971096 C71.8966539,98.8901398 71.9012148,98.7900977 71.8977399,98.7006506 C72.4209432,97.7242718 72.2921513,96.7452442 71.5322142,96.1828892 C71.4696644,96.1368413 71.4038568,96.0918121 71.3352257,96.0486167 C71.2985211,95.4385837 71.0726467,94.8024705 70.7006055,94.3423988 C70.3407268,93.897201 69.8603093,93.6347687 69.3349341,93.5921845 C67.8891207,90.8643549 67.8526333,87.5810978 68.3347883,85.3198599 C68.9878694,82.2560435 67.7646726,73.5364836 67.3324706,72.6120615 C67.3255206,72.5971876 67.3183534,72.5823137 67.3105347,72.5676436 C67.2214881,71.1811123 66.7048004,69.5930705 65.8023887,67.9424768 C64.5924403,65.7293244 66.4513432,62.2985509 68.8149886,60.1939982 C68.9615897,60.0631895 69.1136206,59.9346221 69.2667374,59.8117597 C69.2695608,59.8095184 69.2721671,59.8074809 69.2747733,59.8054434 C69.4296276,59.6815623 69.5814412,59.56685 69.7265221,59.4639553 C69.7975422,59.4136286 69.8661733,59.3590231 69.9365419,59.2989163 C69.9393653,59.2960638 69.9584778,59.2799674 69.9613012,59.2773186 C69.980848,59.2602035 69.9995261,59.2422733 70.011037,59.2306595 C70.0490447,59.1958179 70.0861837,59.1601613 70.1226711,59.1228748 C70.127232,59.1181885 70.1439554,59.1006658 70.1485163,59.0957758 C70.1496023,59.094757 70.1637194,59.0796794 70.1648053,59.0786606 C70.1695835,59.0735668 70.1745788,59.0682693 70.1791397,59.0631755 L70.2130208,59.0254814 C70.2412551,58.9938998 70.2684035,58.9619108 70.2994612,58.9244205 C70.3187909,58.9007852 70.3374689,58.8769463 70.3589705,58.8496435 C70.3652689,58.8414935 70.383947,58.8174507 70.3902454,58.8090969 C70.4047969,58.7897405 70.418914,58.7699766 70.4330312,58.7498051 C71.2772368,58.0012209 73.2217114,56.3685574 74.9715865,55.5625151 C76.4258702,54.8927828 79.3672327,54.4832416 81.9621822,54.1221934 C83.1823384,53.9522643 84.334515,53.7919116 85.3761435,53.6054787 C85.5805164,53.5690071 85.7822831,53.5160317 85.9912169,53.4445148 C88.4406511,52.836723 90.6374969,50.8542176 90.7080827,49.1791738 C90.713078,49.062424 90.7013499,48.9554543 90.6824546,48.8615247 C91.0723052,47.7908087 90.7943059,46.8064836 89.9333769,46.3366319 Z M69.5332257,58.1790962 L69.8718202,58.3710305 L69.9096107,58.4081133 L69.5332257,58.1790962 L69.5332257,58.1790962 Z" id="Fill-1707" fill="#FFFFFE"></path>
            <path d="M82.6287244,51.93055 C85.5987557,53.7706329 89.7932869,50.794226 89.867782,49.0303463 C89.8723429,48.9262292 89.8182634,48.8143694 89.7826447,48.6955821 C90.0808424,48.1022567 90.1496906,47.3936078 89.6351748,47.1128378 C89.4199425,46.9962917 89.1597526,46.9009359 88.8902236,46.8349203 C89.0018577,46.0415106 88.2834033,44.642143 87.4022759,44.8850152 C87.1846546,44.9457332 86.9557396,45.0443491 86.7357293,45.1657852 C86.4688065,44.6064864 85.9968593,44.1572136 85.4617107,44.2980061 C82.9649298,44.9542908 79.3633189,48.962497 82.6287244,51.93055" id="Fill-1708" fill="#2F2F2E"></path>
            <path d="M5.21044861,86.8298193 C1.84166214,87.0415175 0.637577799,82.6262152 1.45702409,81.1388267 C1.50545677,81.0508059 1.60644869,80.9825491 1.69462659,80.9000296 C1.74523114,80.2791977 2.04299442,79.6646822 2.60768044,79.6595884 C2.84332826,79.6579584 3.1052557,79.6934112 3.36088471,79.7577968 C3.66472923,79.0544454 4.95699146,78.2158029 5.56250862,78.8036269 C5.71171604,78.9499207 5.85158443,79.1316674 5.9716888,79.3282879 C6.47143592,78.984151 7.08564056,78.8213533 7.45659584,79.173029 C9.18757567,80.81262 9.38760483,85.8181915 5.21044861,86.8298193" id="Fill-1709" fill="#2F2F2E"></path>
            <path d="M63.76053,100.484163 C66.2877171,102.584641 70.6523056,100.314438 70.9735251,98.6675117 C70.9924204,98.5701183 70.9572361,98.4582586 70.9413814,98.3423238 C71.3053867,97.8219416 71.470666,97.1648419 71.0276046,96.8368015 C70.842127,96.700084 70.6112573,96.5780366 70.3673564,96.4822733 C70.5854121,95.7512117 70.1095555,94.3467502 69.2475406,94.4645188 C69.034263,94.4940628 68.8046964,94.5580409 68.5816454,94.6448392 C68.4102849,94.0855404 68.0308594,93.6044823 67.5078733,93.6696829 C65.0695156,93.9738844 61.1154103,97.2868893 63.76053,100.484163" id="Fill-1710" fill="#2F2F2E"></path>
            <path d="M12.3138497,74.9912281 C12.1340189,75.4851225 5.92746805,79.8521357 4.18302263,80.7900054 C1.07920421,82.4593442 2.13256082,88.3066145 6.85268437,87.8445053 C11.5732423,87.3819886 18.0145723,84.072855 21.9625963,85.0618664 C25.9095344,86.0506741 12.3138497,74.9912281 12.3138497,74.9912281" id="Fill-1711" fill="#2F2F2E"></path>
            <path d="M20.2863521,81.9215437 C16.3307265,81.8098876 10.7726958,84.4704792 6.57447243,84.8816504 C4.44278271,85.0902922 2.10215917,84.6591534 1.51162791,83.2597857 C1.53682159,85.6098594 3.24239055,88.0279863 6.72845796,87.6860907 C11.4490159,87.223574 17.8903459,83.9144404 21.8383699,84.9034518 C23.3810486,85.289969 22.2438579,83.8359959 20.2863521,81.9215437" id="Fill-1712" fill="#272726"></path>
            <path d="M37.7431673,5.31025891 C37.8022422,4.46428127 37.7664063,0.908200436 35.6753306,0.903514144 C33.5838204,0.899439107 31.3576544,3.214875 31.444312,4.44044231 C31.5301008,5.66621337 33.2035261,7.54989912 33.668089,7.83229917 C34.132869,8.11388421 37.7431673,5.31025891 37.7431673,5.31025891" id="Fill-1713" fill="#222121"></path>
            <path d="M37.6676311,5.59194122 C37.6850061,4.79017773 37.5796704,2.11185982 35.9255748,2.10819228 C34.1587591,2.10452475 32.2779203,4.0609499 32.3508951,5.096213 C32.4190918,6.06484924 33.6809478,7.52819494 34.1070686,7.84645531 C34.6750124,7.88842819 37.4404536,5.76105525 37.6676311,5.59194122" id="Fill-1714" fill="#2C2C2B"></path>
            <path d="M37.2895763,5.57204589 C37.2652514,4.81449656 37.0899815,3.01434906 35.8733003,3.01170029 C34.4309619,3.00864401 32.8954503,4.60544717 32.9551768,5.4506098 C33.0051297,6.16231497 33.8556338,7.20511688 34.2435296,7.55923757 C34.9148544,7.36180204 36.8347869,5.91027394 37.2895763,5.57204589" id="Fill-1715" fill="#343534"></path>
            <path d="M37.2140401,5.85372766 C37.1477981,5.14059623 36.9030285,4.2180079 36.1235446,4.21637789 C35.0059006,4.21393286 33.8157162,5.45152153 33.8617599,6.10637994 C33.8941207,6.56095029 34.3332727,7.18320841 34.6827265,7.57339318 C35.4572151,7.13654924 36.5320732,6.36106974 37.2140401,5.85372766" id="Fill-1716" fill="#3C3D3C"></path>
            <path d="M66.5116279,15.4580159 C67.2081464,14.4869346 72.3539563,10.1657656 74.6407175,11.8163592 C76.9276959,13.4675641 77.2754122,17.7573554 76.0787122,19.0273406 C74.8826637,20.297122 69.4529905,21.4972203 68.6921847,21.4369098 C67.9311617,21.376803 66.5116279,15.4580159 66.5116279,15.4580159" id="Fill-1717" fill="#222121"></path>
            <path d="M72.7518428,12.9399291 C74.5579693,14.2439409 74.8327108,17.632334 73.8875132,18.6354043 C72.9794547,19.5991505 68.9547637,20.5119587 68.2132875,20.5172563 C67.6023407,20.1435754 66.5646215,15.8523579 66.5116279,15.6447348 C67.207712,14.809556 71.0241208,11.6927641 72.7518428,12.9399291" id="Fill-1718" fill="#2C2C2B"></path>
            <path d="M71.1646421,14.0649778 C72.4905683,15.0217964 72.6919006,17.5083839 71.9984227,18.244743 C71.378354,18.9028615 68.7588624,19.5279721 68.0364987,19.5992852 C67.5756281,18.9120303 66.9195063,16.2481788 66.8139535,15.832525 C67.509386,15.1334524 69.995742,13.2208339 71.1646421,14.0649778" id="Fill-1719" fill="#343534"></path>
            <path d="M69.2755502,15.1963268 C68.6656893,14.7556116 67.5089517,15.4636492 66.8139535,16.0272268 C66.9722828,16.6500962 67.2465899,17.6865818 67.5576015,18.6876145 C68.2606356,18.5506933 69.4749278,18.2128728 69.8070066,17.8605858 C70.248982,17.3911416 70.1206245,15.8059523 69.2755502,15.1963268" id="Fill-1720" fill="#3C3D3C"></path>
            <path d="M25.2276433,36.1525443 C24.2909161,36.0364058 17.7520692,36.7884538 15.8477742,36.776025 C13.9436964,36.7627811 11.912347,39.9235834 13.6754705,41.1310168 C15.438594,42.3384501 19.0117534,44.3555933 19.5356083,44.7989573 C20.0594631,45.2423214 25.7497607,38.7536403 25.8288167,37.9981285 C25.9074384,37.2430242 25.2276433,36.1525443 25.2276433,36.1525443" id="Fill-1721" fill="#272726"></path>
            <path d="M16.8301562,38.2949342 C16.82755,38.2953417 16.824075,38.2953417 16.8219031,38.2947304 C16.465065,37.1675753 14.6024699,36.0728166 13.4754869,36.5608023 C13.4092449,36.5895313 13.3549482,36.6535094 13.2910952,36.7085224 C12.8302245,36.7221737 12.3654445,36.8976041 12.3443774,37.2657837 C12.3361243,37.4194125 12.3541508,37.5911753 12.3936788,37.7594744 C11.8639599,37.9359235 11.2030601,38.7525608 11.6198418,39.1651583 C11.7232228,39.2670342 11.8535349,39.3640201 11.9957924,39.4481696 C11.7260462,39.7633737 11.5827028,40.1623198 11.835074,40.4121195 C11.9749424,40.5494483 12.1625919,40.6780157 12.3630554,40.7776503 C12.3865116,40.826347 12.4047553,40.8750437 12.4312521,40.9247592 C12.5591752,40.9365768 15.9522867,40.9871072 16.8301562,38.2949342" id="Fill-1722" fill="#272726"></path>
            <path d="M31.6440943,35.2835112 C31.6412708,35.2837149 31.638013,35.2835112 31.635624,35.2835112 C31.279003,34.1559485 29.4159736,33.0609861 28.2896421,33.5491755 C28.2231829,33.5781083 28.1688862,33.6418826 28.1050333,33.6966919 C27.6439454,33.710547 27.1791654,33.8857736 27.1583154,34.2541569 C27.1498451,34.407582 27.1685232,34.5795486 27.2076169,34.7482551 C26.6778979,34.9242967 26.0167809,35.7413416 26.433997,36.1535315 C26.537378,36.2554075 26.6676902,36.3525971 26.8099476,36.4367466 C26.5395499,36.7517469 26.3966409,37.1508968 26.6490121,37.4000853 C26.7886633,37.5378215 26.9767472,37.6665927 27.1765591,37.7654123 C27.2004497,37.8147203 27.2184762,37.8638245 27.2451902,37.9129287 C27.3731133,37.9251538 30.7664419,37.9752767 31.6440943,35.2835112" id="Fill-1723" fill="#272726"></path>
            <path d="M25.8411206,37.6461988 C24.8983121,38.353829 17.1343137,45.9690539 15.8405312,50.3301583 C15.5414648,51.3387299 0.0562538745,72.182543 22.105071,85.0309302 C24.759964,86.5780179 51.5173938,93.1863013 65.6884066,75.0216211 C66.6053698,73.845973 66.5949449,71.4549452 64.890679,68.3377458 C63.1859788,65.2199351 66.0921571,60.7325047 69.1262585,58.5817002 C72.1610115,56.4310996 69.3030487,43.3015349 62.6438802,40.6177156 C44.1308663,51.6775692 25.8411206,37.6461988 25.8411206,37.6461988" id="Fill-1724" fill="#FFFFFE"></path>
            <path d="M69.0317206,58.7534455 C71.6425247,56.9031751 69.8913464,46.9240213 65.1093246,42.4649123 C60.5577381,45.9647576 57.2293484,50.9426188 53.4919957,56.5311242 C56.202923,68.2213859 48.4908323,68.6592486 42.7453692,74.762635 C38.8837856,78.8649745 38.4048885,82.9233036 40.6373529,87.5183151 C49.1595509,86.9005395 58.8161161,83.8815485 65.5938687,75.1933664 C66.5108319,74.0177183 66.5004069,71.6266904 64.7961411,68.509491 C63.0914408,65.3916804 65.9976192,60.9042499 69.0317206,58.7534455" id="Fill-1725" fill="#E1E2E0"></path>
            <path d="M65.8731511,75.2191434 C66.7901143,74.0434953 66.7796893,71.6524675 65.0754235,68.5352681 C63.3707233,65.4174575 66.2769016,60.930027 69.311003,58.7792226 C70.985297,57.5925719 70.8630208,53.0629647 69.3003608,48.7894737 C66.7177911,51.6980312 64.4258174,55.1200433 61.9572707,58.8114154 C64.6679808,70.5018809 56.9556729,70.9393361 51.2104271,77.0431299 C48.3092441,80.1248764 47.3177857,83.1821728 47.9500169,86.4613549 C54.4178436,84.8936882 60.915425,81.5739595 65.8731511,75.2191434" id="Fill-1726" fill="#BBBCBA"></path>
            <path d="M38.7976241,51.9394771 C38.7976241,51.9394771 26.6264685,49.4757099 16.5544246,48.7894737 C16.2414583,49.3815765 15.9938652,49.9459691 15.8405312,50.4637025 C15.5414648,51.4722741 0.0562538745,72.3160872 22.105071,85.1644744 C22.2629659,85.2565702 22.5092559,85.3672075 22.8306925,85.4888473 C6.26106728,69.2528821 13.6680103,58.5844358 19.0907336,54.443791 C24.5132397,50.3031461 38.7976241,51.9394771 38.7976241,51.9394771" id="Fill-1727" fill="#ECECEB"></path>
            <path d="M66.5467022,72.9199623 C66.8492436,73.5678931 68.1015434,82.0969451 67.4786513,85.019154 C66.994976,87.2881344 66.8874685,91.3507423 68.9713771,94.6356295 C71.0548513,97.9205166 68.4353597,103.234568 63.4693806,101.414249 C58.5034014,99.5937267 60.9111357,95.1301352 58.9308253,93.5775462 C56.9505149,92.0253647 46.6578091,87.625955 42.3255814,87.156307 C47.6032238,71.443984 66.5467022,72.9199623 66.5467022,72.9199623" id="Fill-1728" fill="#2F2F2E"></path>
            <path d="M61.7996475,92.2518282 C59.3284946,90.3874989 48.0236977,83.4489338 49.5246766,78.7868879 C49.7216651,78.1976376 49.9279927,77.6363013 50.1425734,77.0994152 C46.8756476,79.2235281 43.9516599,82.4307858 42.3255814,87.2719295 C46.6578091,87.7415775 56.9505149,92.1409872 58.9308253,93.6931687 C60.9111357,95.2457577 58.5034014,99.7093492 63.4693806,101.529872 C64.9933813,102.088152 66.2945482,101.97344 67.3079424,101.453261 C59.5385143,102.175969 64.2351817,94.0892623 61.7996475,92.2518282" id="Fill-1729" fill="#272726"></path>
            <path d="M15.4186047,51.2582479 C22.9267568,49.8702904 40.2322114,49.1538989 60.1992918,59.7292306 C62.1292149,60.7516573 65.8155286,60.1324555 68.2271723,59.3855012 C68.5562105,59.0925061 68.8930674,58.8219237 69.2316618,58.5817002 C72.2664148,56.4310996 69.408452,43.3015349 62.7492836,40.6177156 C44.2362696,51.6775692 25.9465239,37.6461988 25.9465239,37.6461988 C25.0037154,38.353829 17.326809,42.231634 15.9459345,50.3301583 C15.9274736,50.4373318 15.7181054,50.7566109 15.4186047,51.2582479" id="Fill-1730" fill="#3C3D3C"></path>
            <path d="M39.8432296,52.1716674 C38.8995524,51.7965603 37.9332877,51.4230831 36.9233685,51.1262167 C31.6837338,49.5854453 22.3290584,49.3823047 23.2772965,45.6528311 C23.9566572,42.9777732 26.1250516,41.0547633 30.4268731,40.3927736 C27.6053977,38.9176103 25.9465239,37.6461988 25.9465239,37.6461988 C25.0037154,38.353829 17.326809,42.231634 15.9459345,50.3301583 C15.9274736,50.4373318 15.7181054,50.7566109 15.4186047,51.2582479 C20.1997577,50.3741687 28.9580379,49.768007 39.8432296,52.1716674" id="Fill-1731" fill="#545554"></path>
            <path d="M62.5971147,40.3567251 C58.398457,42.865114 54.2119617,44.0796787 50.2467799,44.4633435 C49.8534544,48.7256282 51.3870113,53.0512797 54.3698566,56.7243141 C56.2335377,57.5417665 58.1280593,58.4519259 60.047123,59.4682401 C61.977046,60.4906668 65.6633598,59.871465 68.0750035,59.1245107 C68.4040417,58.8315156 68.7408986,58.5609332 69.079493,58.3207097 C72.114246,56.1701091 69.2562832,43.0405444 62.5971147,40.3567251" id="Fill-1732" fill="#373736"></path>
            <path d="M62.4903899,41.2613833 C63.5973917,41.6159115 64.6815888,41.9926487 65.7421126,42.3885385 C64.8731477,41.4985504 63.8964581,40.7905128 62.8194281,40.3567251 C62.4380479,40.5849272 62.056016,40.7984591 61.6744186,41.0056748 C61.9463366,41.0890093 62.2178203,41.1741775 62.4903899,41.2613833" id="Fill-1733" fill="#545554"></path>
            <path d="M63.9547225,40.9951586 C64.6857737,41.1375811 72.7644759,43.9544503 74.0226398,44.1284544 C75.2814552,44.3018472 83.2413562,43.5453166 86.6370739,45.7810855 C87.9964469,46.6757599 88.9038539,51.9256297 85.500969,52.534644 C82.0976498,53.1432507 77.1140786,53.5216179 74.8210189,54.5778674 C72.527525,55.6345244 70.034219,57.9122663 69.5918092,58.3216037 C54.9562336,60.4752606 57.0772811,39.9863832 63.9547225,40.9951586" id="Fill-1734" fill="#2F2F2E"></path>
            <path d="M72.257282,52.1786345 C69.6464779,53.1963749 66.8591009,55.4881756 66.3645662,55.8997543 C64.2046422,56.11512 62.3487799,55.9490622 60.7674419,55.5030495 C62.4919061,57.5658331 65.3075174,58.8091268 69.5013971,58.19237 C69.9438068,57.7830325 72.4371128,55.5052907 74.7306068,54.4486337 C77.0236664,53.3923842 82.0072377,53.014017 85.4105569,52.4054103 C81.5934966,52.5372377 74.8685205,51.1613015 72.257282,52.1786345" id="Fill-1735" fill="#272726"></path>
            <path d="M62.0714253,43.2275487 C62.8315796,43.3630437 71.1722092,46.305424 72.4840183,46.4547741 C73.7964789,46.6037167 75.8680079,44.4245908 81.295292,44.4406872 C77.7842481,43.7986651 74.9825367,44.3017284 73.7239385,44.1283356 C72.4657746,43.954739 64.3868552,41.1374624 63.655804,40.9952436 C61.7263153,40.7118248 60.1716912,42.12138 59.255814,44.2479379 C60.0824274,43.4934449 61.0350093,43.0995926 62.0714253,43.2275487" id="Fill-1736" fill="#3C3D3C"></path>
            <path d="M30.4557723,17.4678363 C31.6982987,21.5850497 33.1460668,24.6663887 27.5141925,28.4417065 C27.3988663,28.9184858 31.1646704,36.0279987 40.5074006,35.47359 C43.4372523,35.2993822 49.1429701,34.0377508 52.7973574,24.6009844 C53.4862744,22.8236571 51.6855775,22.1097106 51.5024889,21.6031836 C40.7245875,24.4876984 30.4557723,17.4678363 30.4557723,17.4678363" id="Fill-1737" fill="#3C3D3C"></path>
            <path d="M40.2264037,35.6197532 C43.1562554,35.4455454 48.8619732,34.183914 52.5163605,24.7471476 C53.2015853,22.9783779 51.4232587,22.2630051 51.2254014,21.7574968 C50.8998382,21.8412388 50.5751437,21.9162195 50.252404,21.9822351 C42.0666286,23.7400022 34.3484567,20.0378313 31.4173018,18.371345 C32.4528491,22.4907997 33.3122578,25.7064112 27.814605,29.8136408 C27.8139535,29.8177158 27.8150394,29.8254584 27.8139535,29.8307559 C29.187878,31.9740215 33.0694428,36.0441683 40.2264037,35.6197532" id="Fill-1738" fill="#272726"></path>
            <path d="M26.6046512,28.5954438 C26.9582315,28.3295476 28.521543,27.8833311 29.1246711,28.0420538 C29.7277992,28.2005727 28.6566333,30.5936381 28.2372453,30.5816167 C27.1352388,30.5500352 26.6046512,28.5954438 26.6046512,28.5954438" id="Fill-1739" fill="#3C3D3C"></path>
            <path d="M36.1833476,22.2865497 C35.587821,22.6121451 29.5936789,26.2713244 29.9450874,31.9629283 C29.974842,32.4511177 32.9713701,36.9617759 42.3141002,36.4069596 C45.2437347,36.2333631 50.9494526,34.9713242 54.6040571,25.5349653 C55.2927568,23.7570267 53.4918428,23.0434878 53.3089714,22.5371645 C42.53107,25.421883 36.1833476,22.2865497 36.1833476,22.2865497" id="Fill-1740" fill="#7A353B"></path>
            <path d="M35.9230018,23.1900585 C35.4501858,23.4315044 30.6831499,26.1611678 30.8410448,30.6084592 C30.8542932,30.9898826 33.1071732,34.5712287 40.4309337,34.3330428 C42.7274683,34.2584696 47.2193284,33.392728 50.2738453,26.1075811 C50.8496079,24.7351087 49.4546162,24.1409683 49.3221322,23.742226 C40.8268654,25.7681305 35.9230018,23.1900585 35.9230018,23.1900585" id="Fill-1741" fill="#913F45"></path>
            <path d="M35.6696279,24.0935673 C35.3197397,24.2512712 31.7800272,26.0514187 31.7441913,29.2541938 C31.7409335,29.5292588 33.2497311,32.1808852 38.5547391,32.2589222 C40.2179566,32.2839837 43.4959589,31.8147432 45.9506056,26.6806043 C46.4132137,25.7135981 45.4243617,25.2386526 45.342265,24.9474912 C39.1296329,26.1145817 35.6696279,24.0935673 35.6696279,24.0935673" id="Fill-1742" fill="#A74950"></path>
            <path d="M35.4208834,24.997076 C35.1934887,25.0704267 32.8810994,25.941262 32.6515328,27.8997247 C32.6317688,28.0682275 33.396484,29.7901343 36.6829566,30.1850053 C37.7130742,30.309294 39.7772188,30.236147 41.6319952,27.2536276 C41.981449,26.6918838 41.3985193,26.3363369 41.36681,26.1525527 C37.4365953,26.4608292 35.4208834,24.997076 35.4208834,24.997076" id="Fill-1743" fill="#BE535B"></path>
            <path d="M53.3045415,22.5371645 C42.5266401,25.421883 36.1789177,22.2865497 36.1789177,22.2865497 C36.044479,22.3599004 38.7530172,26.1071004 43.0845933,25.7036718 C45.0879256,26.6843294 46.4572892,27.1543849 46.3923503,27.9801911 C45.4875495,31.7850529 43.4333956,32.4511177 40.5700031,32.6128966 C39.667157,32.6638346 39.2078066,31.5808936 38.2719482,31.463125 C37.374749,31.3504502 36.625454,31.4653663 35.7686516,31.2813784 C35.0714816,31.1318245 33.9996641,29.8247565 33.1865162,29.9032009 C32.7688657,29.94334 30.9675173,30.1792847 30.5691965,30.2357239 C29.6372474,30.3681626 30.444314,31.6505767 29.9302326,31.5998425 C29.9324044,31.7204636 29.9332732,31.8404734 29.9406575,31.9629283 C29.9704121,32.4511177 32.9669402,36.9617759 42.3096704,36.4069596 C45.2393049,36.2333631 50.9450227,34.9713242 54.5996272,25.5349653 C55.2883269,23.7570267 53.4874129,23.0434878 53.3045415,22.5371645" id="Fill-1744" fill="#542327"></path>
            <path d="M53.3060907,22.5877193 C52.5615739,22.7871923 51.8409477,22.9550839 51.1387823,23.0997477 C51.5596906,23.5714332 51.8928553,24.212029 51.5284157,25.1519362 C47.873594,34.5889063 42.1680934,35.8505377 39.2382417,36.0245418 C38.1694648,36.0877049 37.1866939,36.0824073 36.2790698,36.0267831 C37.9049311,36.4041315 39.8941462,36.6011595 42.3112196,36.4575145 C45.2408541,36.2839179 50.9465719,35.021879 54.6011764,25.5855201 C55.2898761,23.8075816 53.4889621,23.0940426 53.3060907,22.5877193" id="Fill-1745" fill="#2F1213"></path>
            <path d="M27.8189358,30.419295 C27.9194933,30.2440684 27.1028705,29.8088545 27.2210202,29.641778 C27.3387355,29.4753127 28.9070423,28.8092479 29.0353998,28.6906644 C29.1185824,28.6138499 30.4006368,28.6056999 30.5685223,28.6134424 C30.3459057,28.9728607 30.2477372,29.59573 30.1530437,29.9755235 C30.3917322,30.1552326 30.6045754,30.312529 30.7420547,30.3565394 C31.1036709,30.4722704 32.4232987,30.2754462 33.202131,30.4555628 C33.980529,30.6360869 34.9622139,31.5706966 35.6415746,31.8227376 C36.320501,32.0747787 38.0238981,32.0346395 38.5394998,32.1312179 C39.0553188,32.227185 39.6834234,33.3239812 40.9018421,33.5073578 C42.1198264,33.6909382 43.2880749,33.2043788 44.4960686,33.3158311 C45.7031935,33.4268759 47.5883761,34.0650266 47.7936177,34.5096131 C47.9990766,34.9544034 43.6040819,37.7828864 36.9284072,35.8511152 C30.2527325,33.9197516 27.8189358,30.419295 27.8189358,30.419295" id="Fill-1746" fill="#FFFFFE"></path>
            <path d="M32.9534884,19.5760234 C33.1443957,20.4639739 33.2006471,21.7213265 33.9012921,22.0147291 C34.6023715,22.3081318 36.0887989,23.2665804 37.007934,23.7674025 C37.9268519,24.2682245 39.7249425,24.7753628 41.0638999,24.9287879 C42.4032917,25.0820093 47.1551245,24.3313876 48.8743763,23.6425026 C50.5934108,22.9530064 32.9534884,19.5760234 32.9534884,19.5760234" id="Fill-1747" fill="#FFFFFE"></path>
            <path d="M31.1441554,11.6748067 C31.1441554,11.6748067 30.914806,10.0859498 31.6923352,8.9577759 C32.4700816,7.82919447 41.3884285,2.48947004 45.514763,3.05325137 C49.6413147,3.61764397 67.38679,7.11178425 69.1149464,22.7352715 C69.2174586,23.6635649 75.3799206,45.0611754 49.7314473,45.9375121 C44.3669301,46.1208887 17.2967511,43.4696698 26.7932496,28.671785 C27.4528463,31.5002681 48.9877992,41.6587235 54.1968105,25.3956592 C53.6099714,24.5879869 53.5074592,23.6596936 53.3580346,23.0606632 C53.2090444,22.462244 39.7888468,27.4621104 32.140609,19.2262573 C30.6713395,18.8246624 28.2397146,17.8391148 28.3441815,15.7372108 C28.8076584,12.6485367 31.1441554,11.6748067 31.1441554,11.6748067" id="Fill-1748" fill="#ECECEB"></path>
            <path d="M30.3368198,40.1237012 C25.2809252,36.5987944 28.6069259,32.7737612 30.914537,33.6965533 L31.1087021,31.8159238 C28.6481914,30.6545383 26.9702052,29.3692717 26.7929806,28.6111111 C21.8589279,36.299483 26.7973244,40.7080615 33.4328194,43.1449335 C33.5529238,42.4464722 32.6012107,41.7029817 30.3368198,40.1237012" id="Fill-1749" fill="#D7D8D6"></path>
            <path d="M50.1341882,8.45110736 C48.5593658,7.53320533 41.3615737,3.50584649 36.0535252,5.83493375 C35.3378942,6.14932284 39.2544261,6.06802586 35.3895847,11.4427956 C35.1005089,11.8319616 38.4219486,11.380855 43.3153873,15.0834335 C43.1787768,15.6596437 44.8083303,9.56929745 47.1430898,8.80176427 C49.4782837,8.03443485 50.1341882,8.45110736 50.1341882,8.45110736" id="Fill-1750" fill="#DEDFDE"></path>
            <path d="M69.089447,22.7246439 C67.3612906,7.10115669 49.6158153,3.60701641 45.4892637,3.04262382 C45.2714252,3.01287605 42.8665143,2.68483559 37.7906386,5.09990613 C44.3981165,3.08317043 46.5647733,4.11150596 46.938552,4.17283526 C55.7165962,5.6068407 63.5351085,11.4824325 64.7728568,21.2714858 C64.8768893,22.0958657 70.9713718,43.7795439 45.7249115,43.5497118 C42.2950955,43.5181303 28.3336681,42.1120389 24.7906977,34.9583118 C25.3052135,44.4824878 45.2140878,46.0803097 49.7059479,45.9268845 C75.3544212,45.0505479 69.1919593,23.6529373 69.089447,22.7246439" id="Fill-1751" fill="#B2B3B2"></path>
            <path d="M68.9176563,22.6937585 C67.1894999,7.07027127 49.4440246,3.57613099 45.3174729,3.01173839 C45.2297294,2.99992079 64.3056918,5.44372034 67.1530125,22.3280239 C67.3020027,23.2143444 73.8595277,43.7916501 48.1556717,44.2013951 C44.5896795,44.2580381 31.4607296,43.2258313 25.6976744,38.261214 C29.9432445,44.8961888 45.5889566,46.0306791 49.5341572,45.8959991 C75.1826305,45.0196625 69.0201685,23.6220519 68.9176563,22.6937585" id="Fill-1752" fill="#7A7B7A"></path>
            <path d="M35.3894881,11.5035625 C35.2669947,11.6688053 35.7964964,11.6836792 36.8179266,11.9273664 C36.9914589,11.8910985 37.1180789,11.8281392 37.1673803,11.7285046 C40.0561837,5.92035467 37.758346,5.59129545 36.4183026,5.75042563 C36.2962436,5.79728856 36.1744017,5.84272522 36.0534286,5.8957007 C35.3377976,6.21008978 39.2543295,6.1287928 35.3894881,11.5035625" id="Fill-1753" fill="#B8B9B8"></path>
            <path d="M49.5420474,8.51586744 C49.4182508,8.4457768 49.2777309,8.3683511 49.1246141,8.2850166 C47.7181116,7.93802722 44.0480868,7.62832443 41.4841951,13.9511515 C41.4509655,14.0334672 41.429464,14.1196543 41.4186047,14.2088976 C41.9544048,14.5408093 42.5153986,14.9222327 43.0994143,15.3639667 C42.9628037,15.9401769 44.5923573,9.84983072 46.9271168,9.08229755 C48.3557724,8.61244581 49.1539343,8.58697683 49.5596395,8.63709978 L49.5420474,8.51586744" id="Fill-1754" fill="#B8B9B8"></path>
            <path d="M31.9159652,19.2753025 C39.564203,27.5111555 52.9844006,22.5112892 53.1333908,23.1097083 C55.5005112,17.1430395 44.4142043,15.0590657 43.1108656,15.0091465 C40.9194494,12.4241469 36.3320271,12.6543865 36.3320271,12.6543865 C36.3320271,12.6543865 31.3979744,12.8697522 28.4791993,14.4476064 C28.3230419,14.842885 28.1949016,15.283804 28.1195377,15.786256 C28.0150708,17.88816 30.4466957,18.8737076 31.9159652,19.2753025" id="Fill-1755" fill="#B8B9B8"></path>
            <path d="M35.0074532,12.7654346 C35.4913456,12.2776527 37.2142896,10.5797887 37.5961042,8.11907771 C37.8232817,6.654917 37.3991156,5.23191416 35.7843308,5.88555006 C33.5336227,7.09991101 31.799385,8.33383215 31.4714328,8.80918519 C30.8798156,9.66738793 30.8135735,10.9887186 30.8428938,11.4775193 C33.0497302,12.1975783 34.724893,13.050891 35.0074532,12.7654346" id="Fill-1756" fill="#222121"></path>
            <path d="M35.4377696,6.37712035 C33.5098012,7.45007753 32.0492191,8.50041826 31.755148,8.9262596 C31.163748,9.78486985 31.1166184,11.0395737 31.1461558,11.5287818 C32.8936419,12.0990832 34.1331277,12.570565 34.6797872,12.6062216 C34.7119308,12.5978677 34.7382105,12.5848276 34.7566713,12.5662862 C35.1432641,12.1765089 36.2767627,11.0306086 36.7196068,9.5908981 C36.8227706,9.25531882 36.8957454,8.89610433 36.9365766,8.52242346 C37.0751418,7.27322093 36.7041865,6.05437744 35.4377696,6.37712035" id="Fill-1757" fill="#2C2C2B"></path>
            <path d="M35.0915715,6.92690058 C33.4865601,7.85845399 32.2996335,8.72521431 32.0396607,9.10174771 C31.4480435,9.96015421 31.4200264,11.1488424 31.4495639,11.6384581 C32.9103631,12.1148299 33.8064764,12.2808876 34.4439201,12.4585593 C34.4695481,12.4510204 34.4912668,12.4404253 34.5060355,12.4253477 C34.879597,12.0467768 35.8975522,10.9766721 36.1549187,9.89678738 C36.2237669,9.60745977 36.263295,9.29897949 36.2774121,8.9837754 C36.3275823,7.94993857 36.0094034,6.93484691 35.0915715,6.92690058" id="Fill-1758" fill="#343534"></path>
            <path d="M34.4433395,7.83040936 C33.1610678,8.62055899 32.2477968,9.3037389 32.0217052,9.63096435 C31.430088,10.4893709 31.4214005,11.6118397 31.450938,12.1014554 C32.6250505,12.4845089 33.1777912,12.3449388 33.9058018,12.6646255 C33.9249143,12.6576979 33.9422892,12.6495478 33.9533658,12.637934 C34.3160679,12.2724032 35.2006703,11.2736117 35.2881966,10.5559977 C35.4135135,9.53377473 35.1908969,8.27499587 34.4433395,7.83040936" id="Fill-1759" fill="#3C3D3C"></path>
            <path d="M34.2353193,11.8835433 C33.8498125,12.5901547 33.0236334,12.9167689 32.3894476,12.6121599 C31.7559133,12.3075509 31.5543639,11.488061 31.9400879,10.7810421 C32.3258118,10.074227 33.1519909,9.74822403 33.7859596,10.0526293 C34.419711,10.3570345 34.6208261,11.1773394 34.2353193,11.8835433" id="Fill-1760" fill="#FFFFFE"></path>
            <g id="Group-1763" stroke-width="1" transform="translate(32.348837, 11.143275)">
                <mask id="mask-2" fill="white">
                    <use xlink:href="#path-1"></use>
                </mask>
                <g id="Clip-1762"></g>
                <path d="M1.37795681,1.02655806 C1.21297342,1.34708855 0.820813953,1.47551587 0.501644518,1.31266917 C0.182043189,1.14960735 0.0576578073,0.757656642 0.222425249,0.436911028 C0.386976744,0.116380535 0.778920266,-0.0111862991 1.09852159,0.151230159 C1.41747508,0.31429198 1.54229236,0.705812448 1.37795681,1.02655806" id="Fill-1761" fill="url(#radialGradient-3)" mask="url(#mask-2)"></path>
            </g>
            <path d="M33.6492362,11.024486 C33.5638817,11.1805599 33.3471292,11.2367954 33.1644749,11.1487746 C32.9813864,11.0609576 32.9025475,10.8631145 32.987902,10.7070406 C33.0734736,10.5505592 33.2902262,10.4945275 33.4735319,10.582752 C33.6564033,10.6703653 33.7348078,10.8682083 33.6492362,11.024486" id="Fill-1764" fill="#FFFFFE"></path>
            <path d="M33.5389996,20.3422297 L31.6264515,13.251462 C31.2279135,13.3478366 30.8278552,13.4574551 30.43605,13.58154 C29.7004378,14.2800013 29.7582096,16.772905 30.6682228,18.7325902 C31.1725309,19.010304 31.5864891,19.0810058 31.9772084,19.1875681 C32.453065,19.7008189 32.9521606,20.1623168 33.4688483,20.5769518 C33.5183669,20.4443094 33.5389996,20.3422297 33.5389996,20.3422297" id="Fill-1766" fill="#7A7B7A"></path>
            <path d="M49.9087551,8.68004144 C49.0252387,8.20754093 47.8945635,7.75928688 46.2619694,8.61361834 C45.3823623,9.07430125 44.609394,10.5085104 44.0642548,11.9105268 C43.51955,13.3125432 43.2024571,14.6825706 43.2348179,15.0142786 C43.2669616,15.3459866 44.7082141,15.4633477 46.5099968,15.9254568 C48.3117796,16.3879735 50.4743099,17.1956458 51.9496607,18.9079762 C52.149907,19.3164987 52.6844041,17.3178969 52.6468307,14.9382792 C52.6279355,13.7481647 52.465914,12.4628981 52.0471776,11.3355392 C51.6286584,10.2081802 50.9536414,9.23852523 49.9087551,8.68004144" id="Fill-1767" fill="#222121"></path>
            <path d="M46.4211197,9.59694708 C45.8142994,10.0458124 45.1103966,11.2556908 44.612387,12.469848 C44.1265398,13.6591475 43.8105328,14.8142167 43.8389843,15.1049705 C43.8498437,15.2141815 44.0188151,15.3130012 44.3074565,15.4171184 C44.9527189,15.5835836 45.9387476,15.7667565 47.0346728,16.0795156 C48.5006846,16.4978181 50.1982176,17.1591966 51.4535581,18.4375356 C51.498733,18.4797122 51.544125,18.5220926 51.5884312,18.5654918 C51.7463261,18.8866047 52.1253173,17.7999961 52.2402091,16.2402758 C52.2599732,15.9645995 52.2714841,15.6744569 52.2723528,15.3753492 C52.2730044,14.4166968 52.1650625,13.3659486 51.8499242,12.4064812 C51.5495547,11.4914317 50.9796562,10.7540538 50.2913908,10.1252756 C49.6724081,9.55986425 48.9887036,9.08410371 48.1225621,9.03825954 C47.5285559,9.00688176 46.9449746,9.20941109 46.4211197,9.59694708" id="Fill-1768" fill="#2C2C2B"></path>
            <path d="M46.8822332,10.6128202 C46.5203998,10.9995412 45.9140139,12.0348043 45.4629167,13.0615098 C45.0363615,14.0378886 44.7207889,14.9779996 44.7455482,15.2282069 C44.7559732,15.3321203 44.9166915,15.4413313 45.1927361,15.5631749 C45.9070639,15.7318814 46.852913,15.939912 47.8619635,16.2655075 C49.0532338,16.6499872 50.3680835,17.208471 51.4088432,18.1673271 C51.4494572,18.1964636 51.4896368,18.2253964 51.5295992,18.2551442 C51.6755488,18.5511956 52.0234823,17.7616572 52.1550975,16.520401 C52.1772506,16.3070728 52.1931052,16.0807046 52.2002724,15.8445562 C52.2202536,15.1173659 52.1644366,14.301951 51.9552856,13.5099676 C51.7700251,12.8082463 51.3866902,12.1898594 50.9762069,11.6028504 C50.3552694,10.7146961 49.6357291,10.1034406 48.7691533,9.96651938 C48.0341927,9.85038083 47.3596101,10.1024219 46.8822332,10.6128202" id="Fill-1769" fill="#343534"></path>
            <path d="M51.3589512,13.10021 C50.8867868,11.8312435 49.9858954,11.1295222 49.1136727,10.9143602 C48.24145,10.6991983 47.3983303,10.9705957 47.041275,11.6480706 C46.739168,12.2220395 45.3059515,14.9313277 45.3498232,15.3710242 C45.360031,15.4700476 45.512279,15.5892424 45.7752924,15.7290162 C46.55912,15.899964 47.4673958,16.1271473 48.3865309,16.4714879 C49.3058831,16.8158285 50.2356604,17.2773264 51.0622738,17.9164959 C51.0976753,17.9327961 51.1330768,17.948485 51.1684783,17.9645814 C51.3026998,18.2355713 51.6193583,17.7426956 51.7679142,16.8205148 C51.91647,15.898334 51.8969232,14.5466443 51.3589512,13.10021" id="Fill-1770" fill="#3C3D3C"></path>
            <path d="M50.5705342,15.912019 C50.0429871,16.8790252 48.9127463,17.325038 48.0453017,16.9083654 C47.1780743,16.4918967 46.9033329,15.3706503 47.4310971,14.4040516 C47.958427,13.4374529 49.0886677,12.9910326 49.9561123,13.4072976 C50.8231226,13.8241739 51.0982984,14.945624 50.5705342,15.912019" id="Fill-1771" fill="#FFFFFE"></path>
            <path d="M50.0616098,15.9829319 C49.8350838,16.3983819 49.2953743,16.5640321 48.8564395,16.3533527 C48.4170703,16.1426733 48.2452755,15.6349237 48.4722358,15.21927 C48.6985446,14.80382 49.2380369,14.637966 49.6774061,14.8488491 C50.1165581,15.059936 50.2883529,15.5674819 50.0616098,15.9829319" id="Fill-1772" fill="url(#radialGradient-4)"></path>
            <path d="M49.6263212,14.8161752 C49.5094746,15.0301146 49.2127973,15.1065216 48.9630323,14.9865117 C48.7126158,14.8660944 48.6048911,14.595512 48.7213032,14.38198 C48.838367,14.1680406 49.1354787,14.0916337 49.3852437,14.212051 C49.635443,14.3318571 49.7431678,14.6024395 49.6263212,14.8161752" id="Fill-1774" fill="#FFFFFE"></path>
            <path d="M43.2325581,15.0584795 C44.4177472,15.2316686 50.4438158,16.4996163 52.1248426,18.6650908 C53.2998239,20.1775407 46.3654796,20.4705359 46.2449409,20.3975927 C46.1248365,20.3244458 43.2325581,15.0584795 43.2325581,15.0584795" id="Fill-1776" fill="#ECECEB"></path>
            <path d="M43.1578171,14.7762634 C38.2954361,9.9125033 32.172285,11.8082104 32.172285,11.8082104 C32.172285,11.8082104 30.3696335,11.9198664 30.2325886,13.4975169 C30.2273761,15.4172667 30.8924024,17.3690056 32.1045227,19.189732 C39.7757823,27.2147019 51.8481178,23.7132266 53.1803424,22.8768253 C55.9440461,16.8975238 44.4611559,14.8261826 43.1578171,14.7762634" id="Fill-1777" fill="#D0D1CF"></path>
            <path d="M39.8726476,23.0677937 C34.6110771,21.1808479 29.4392047,15.9603183 36.3841912,12.9502924 C36.1413762,13.1954059 30.2734197,13.2365637 30.2325886,13.7035629 C30.2273761,15.6233128 30.8924024,17.5750516 32.1045227,19.3957781 C39.0597169,26.6717562 49.6325939,24.4724589 52.538555,23.375459 C47.9904435,24.1605148 43.6599533,24.4262072 39.8726476,23.0677937" id="Fill-1778" fill="#B8B9B8"></path>
            <path d="M30.9501465,12.5199156 C30.9501465,12.5199156 33.5559553,11.9465579 36.7922577,12.8074094 C38.79559,12.3469303 40.7630864,13.5969478 41.9352442,15.4877649 C42.7440484,15.5189389 48.4174053,15.5896408 51.6337266,17.5953739 C48.8122512,15.6008471 44.1698806,14.8068262 43.3691123,14.7762634 C38.5067314,9.9125033 32.3835802,11.8082104 32.3835802,11.8082104 C32.3835802,11.8082104 31.4075422,11.8713735 30.8372093,12.5331595 C30.9062747,12.5235831 30.9501465,12.5199156 30.9501465,12.5199156" id="Fill-1779" fill="#B8B9B8"></path>
            <path d="M36.7491847,12.7764605 C36.7341988,12.2375369 32.9903305,12.002611 31.6476809,11.5724909 C30.6566569,11.2550455 29.2247435,10.1221853 28.8603038,10.2497339 C26.7557625,10.9848706 28.1372886,14.7630409 30.259422,15.4670035 C32.2862105,16.1395883 36.8080424,14.8781607 36.7491847,12.7764605" id="Fill-1780" fill="#0A0807"></path>
            <path d="M35.83212,12.7866146 C35.8177857,12.326543 32.6959408,12.1148448 31.5392032,11.7442202 C30.6858757,11.470989 29.3254168,10.4410235 29.0120161,10.5488082 C27.2032833,11.1714738 28.4025895,14.4001254 30.2306519,15.0060834 C31.9764005,15.5851461 35.8885886,14.5806496 35.83212,12.7866146" id="Fill-1781" fill="#1B1A19"></path>
            <path d="M34.9146639,12.7967128 C34.9011983,12.4152894 32.4011595,12.2268189 31.4309855,11.9160974 C30.714703,11.6866728 29.4256986,10.7596019 29.1637712,10.8480302 C27.650847,11.3578173 28.6679334,14.037154 30.2017075,14.5451073 C31.666199,15.0308517 34.9689606,14.28349 34.9146639,12.7967128" id="Fill-1782" fill="#262626"></path>
            <path d="M33.695365,12.8070671 C33.682551,12.5044956 31.8043184,12.3392529 31.0204908,12.0882306 C30.4416876,11.9028165 29.2241377,11.078844 29.0132492,11.1473046 C27.7961336,11.5446207 28.6310002,13.6744387 29.8707032,14.0843874 C31.0541548,14.4766097 33.7472727,13.9863828 33.695365,12.8070671" id="Fill-1783" fill="#343534"></path>
            <path d="M58.6117208,18.0026861 C58.9811558,16.9880019 59.6142557,16.1279654 60.4143723,15.4635306 C60.3392256,15.4366354 60.2651649,15.4097402 60.1884979,15.3852899 C56.8292677,14.3090727 53.1811788,15.978004 52.040513,19.1123186 C50.8998473,22.2466331 52.6983722,25.6598839 56.0576025,26.7356936 C58.328509,27.4634952 60.731248,26.9345554 62.4022843,25.5478204 C59.1896552,24.3935662 57.4969003,21.0658912 58.6117208,18.0026861" id="Fill-1784" fill="#ECECEB"></path>
            <path d="M57.7631132,21.2436357 C57.946419,22.626907 57.1491258,23.8585868 55.9826148,23.9948968 C54.8161038,24.1307993 53.7214817,23.1197827 53.5377415,21.7365114 C53.3548701,20.353444 54.1519462,19.1217641 55.3184572,18.9860654 C56.4854025,18.8493479 57.5798075,19.8605683 57.7631132,21.2436357" id="Fill-1785" fill="#FFFFFE"></path>
            <path d="M26.5881408,28.5778596 C25.9860987,29.5169518 25.8766364,29.7276312 25.6976744,30.1180197 C30.0896285,35.0035813 39.6143613,37.2273289 43.5156902,36.93902 C53.8794161,36.1733206 53.9964798,27.484731 53.8466209,25.5994152 C48.297712,40.9930704 27.2394844,31.3708898 26.5881408,28.5778596" id="Fill-1786" fill="#D7D8D6"></path>
            <path d="M43.4954945,35.2837645 C51.6793152,34.6792328 53.4730621,29.134534 53.7916753,25.9005848 C48.0431716,40.7742653 27.3185432,31.2877834 26.6726293,28.5177772 C26.52125,28.7545368 26.4004941,28.9446373 26.3023256,29.1037674 C30.9171135,33.5412787 39.7694355,35.559237 43.4954945,35.2837645" id="Fill-1787" fill="#B4B5B4"></path>
            <path d="M87.1668412,49.0804542 C87.2091927,50.0774119 86.847142,50.8583927 85.8789227,50.8950681 C84.910269,50.9315396 84.0908227,50.1532076 84.0482541,49.1560461 C84.0054683,48.1590884 84.7558491,47.3212608 85.7240684,47.2847892 C86.692505,47.2481139 87.1240554,48.0834964 87.1668412,49.0804542" id="Fill-1788" fill="#3C3D3C"></path>
            <path d="M66.1615387,98.8402981 C67.1245456,98.4171055 67.9741809,98.309932 68.2421895,98.8462069 C68.5097638,99.3820742 67.9465981,100.159795 66.9827225,100.583395 C66.0199329,101.006588 65.0221761,100.915714 64.7546018,100.379643 C64.4868103,99.8435721 65.1985319,99.2636944 66.1615387,98.8402981" id="Fill-1789" fill="#3C3D3C"></path>
            <path d="M85.8800456,45.1850771 C85.5258137,45.2730979 85.5112621,45.5261577 85.6124713,45.6502426 C85.7141147,45.7749387 85.8581097,46.1881474 86.2475258,45.9913232 C86.6371592,45.7951101 86.2837961,45.0848312 85.8800456,45.1850771" id="Fill-1790" fill="#51514F"></path>
            <path d="M87.4971352,45.7781397 C87.168097,45.7648958 86.9817506,46.1179978 87.111194,46.366575 C87.2417233,46.6147447 87.7673157,46.7830438 87.9599605,46.5236677 C88.1526053,46.2634766 87.9069669,45.7948473 87.4971352,45.7781397" id="Fill-1791" fill="#51514F"></path>
            <path d="M88.7000392,47.2865064 C88.4824179,47.2587961 88.230481,47.4340227 88.2871668,47.6819887 C88.3438526,47.9297509 88.6057801,48.1512292 88.8422966,47.9057082 C89.0783788,47.6597798 88.9348183,47.3152354 88.7000392,47.2865064" id="Fill-1792" fill="#51514F"></path>
        </g>
    </g>
</svg>